<?xml version="1.0" encoding="utf-8"?>
<!-- Generator: Adobe Illustrator 24.1.2, SVG Export Plug-In . SVG Version: 6.00 Build 0)  -->
<svg version="1.1" id="Layer_1" xmlns="http://www.w3.org/2000/svg" xmlns:xlink="http://www.w3.org/1999/xlink" x="0px" y="0px"
	 viewBox="0 0 42 42" style="enable-background:new 0 0 42 42;" xml:space="preserve">
<path d="M37,0H5C2.2,0,0,2.2,0,5v32c0,2.8,2.2,5,5,5h32c2.8,0,5-2.2,5-5V5C42,2.2,39.8,0,37,0z M13,16v19H7V16H13z M7,10.5
	C7,9.1,8.2,8,10,8s2.9,1.1,3,2.5c0,1.4-1.1,2.5-3,2.5C8.2,13,7,11.9,7,10.5z M35,35h-6c0,0,0-9.3,0-10c0-2-1-4-3.5-4h-0.1
	C23,21,22,23,22,25c0,0.9,0,10,0,10h-6V16h6v2.6c0,0,1.9-2.6,5.8-2.6c4,0,7.2,2.7,7.2,8.3V35z"/>
</svg>
