<?xml version="1.0" encoding="utf-8"?>
<!-- Generator: Adobe Illustrator 24.1.2, SVG Export Plug-In . SVG Version: 6.00 Build 0)  -->
<svg version="1.1" id="Layer_1" xmlns="http://www.w3.org/2000/svg" xmlns:xlink="http://www.w3.org/1999/xlink" x="0px" y="0px"
	 viewBox="0 0 128 128" style="enable-background:new 0 0 128 128;" xml:space="preserve">
<path d="M0,0v128h128V0H0z M91.5,90.9c-3.7-0.1-8.3-0.2-13.8-0.2c-5.8,0-10,0.1-12.8,0.2v-1.5c1.4,0,2.8-0.2,4.1-0.7
	c0.8-0.4,1.3-1.2,1.3-2.1c-0.1-1.3-0.4-2.5-0.9-3.6L56.2,50.7l-7.3,20.7c-1.6,4.7-2.5,8.5-2.5,11.3c0,4.4,2.1,6.6,6.2,6.8v1.5
	c-3.8-0.2-7.1-0.2-9.9-0.2c-2.4,0-4.4,0.1-5.9,0.2v-1.5c1.6-0.9,3-2.1,4-3.6c1.6-2.2,2.8-4.5,3.6-7.1l14.8-41.6c1.6,0.1,3,0.2,4,0.2
	s2.3-0.1,3.9-0.2L87,84.5c0.5,1.3,1.2,2.6,2.2,3.6c0.6,0.7,1.4,1.1,2.3,1.2V90.9z"/>
</svg>
